<mxfile host="app.diagrams.net" modified="2023-04-25T08:35:43.975Z" agent="Mozilla/5.0 (Windows NT 10.0; Win64; x64) AppleWebKit/537.36 (KHTML, like Gecko) Chrome/112.0.0.0 Safari/537.36" version="21.2.1" etag="A_ufOUcFG9luqrjLTlS6" type="github">
  <diagram name="第 1 页" id="DxMR86RqqS7yQ752BJwD">
    <mxGraphModel>
      <root>
        <mxCell id="0" />
        <mxCell id="1" parent="0" />
      </root>
    </mxGraphModel>
  </diagram>
</mxfile>
